<mxfile host="Electron" agent="Mozilla/5.0 (Windows NT 10.0; Win64; x64) AppleWebKit/537.36 (KHTML, like Gecko) draw.io/24.7.17 Chrome/128.0.6613.36 Electron/32.0.1 Safari/537.36" version="24.7.17">
  <diagram name="Сторінка-1" id="wrOm3jHwrSAXzv-LaOXQ">
    <mxGraphModel dx="1050" dy="629" grid="1" gridSize="10" guides="1" tooltips="1" connect="1" arrows="1" fold="1" page="1" pageScale="1" pageWidth="827" pageHeight="1169" math="0" shadow="0">
      <root>
        <mxCell id="0" />
        <mxCell id="1" parent="0" />
        <mxCell id="hvpJ79Qx7bVShM9D8rhF-3" value="" style="edgeStyle=orthogonalEdgeStyle;rounded=0;orthogonalLoop=1;jettySize=auto;html=1;" edge="1" parent="1" source="hvpJ79Qx7bVShM9D8rhF-1" target="hvpJ79Qx7bVShM9D8rhF-2">
          <mxGeometry relative="1" as="geometry" />
        </mxCell>
        <mxCell id="hvpJ79Qx7bVShM9D8rhF-1" value="Початок" style="ellipse;whiteSpace=wrap;html=1;" vertex="1" parent="1">
          <mxGeometry x="374" y="10" width="80" height="50" as="geometry" />
        </mxCell>
        <mxCell id="hvpJ79Qx7bVShM9D8rhF-5" value="" style="edgeStyle=orthogonalEdgeStyle;rounded=0;orthogonalLoop=1;jettySize=auto;html=1;" edge="1" parent="1" source="hvpJ79Qx7bVShM9D8rhF-2" target="hvpJ79Qx7bVShM9D8rhF-4">
          <mxGeometry relative="1" as="geometry" />
        </mxCell>
        <mxCell id="hvpJ79Qx7bVShM9D8rhF-2" value="Ініціалізація змінних" style="whiteSpace=wrap;html=1;" vertex="1" parent="1">
          <mxGeometry x="371" y="80" width="86" height="45" as="geometry" />
        </mxCell>
        <mxCell id="hvpJ79Qx7bVShM9D8rhF-7" value="" style="edgeStyle=orthogonalEdgeStyle;rounded=0;orthogonalLoop=1;jettySize=auto;html=1;" edge="1" parent="1" source="hvpJ79Qx7bVShM9D8rhF-4" target="hvpJ79Qx7bVShM9D8rhF-6">
          <mxGeometry relative="1" as="geometry" />
        </mxCell>
        <mxCell id="hvpJ79Qx7bVShM9D8rhF-4" value="Обчислення y і z" style="whiteSpace=wrap;html=1;" vertex="1" parent="1">
          <mxGeometry x="364.5" y="140" width="99" height="45" as="geometry" />
        </mxCell>
        <mxCell id="hvpJ79Qx7bVShM9D8rhF-9" value="" style="edgeStyle=orthogonalEdgeStyle;rounded=0;orthogonalLoop=1;jettySize=auto;html=1;" edge="1" parent="1" source="hvpJ79Qx7bVShM9D8rhF-6" target="hvpJ79Qx7bVShM9D8rhF-8">
          <mxGeometry relative="1" as="geometry" />
        </mxCell>
        <mxCell id="hvpJ79Qx7bVShM9D8rhF-6" value="Вивід результату" style="shape=parallelogram;perimeter=parallelogramPerimeter;whiteSpace=wrap;html=1;fixedSize=1;" vertex="1" parent="1">
          <mxGeometry x="356" y="200" width="116" height="42.5" as="geometry" />
        </mxCell>
        <mxCell id="hvpJ79Qx7bVShM9D8rhF-8" value="Кінець" style="ellipse;whiteSpace=wrap;html=1;" vertex="1" parent="1">
          <mxGeometry x="374" y="260" width="80" height="50" as="geometry" />
        </mxCell>
      </root>
    </mxGraphModel>
  </diagram>
</mxfile>
